<?xml version="1.0" encoding="UTF-8"?>
<svg width="800px" height="800px" viewBox="0 0 800 800" version="1.1" xmlns="http://www.w3.org/2000/svg" xmlns:xlink="http://www.w3.org/1999/xlink">
    <title>kazakhstan</title>
    <g id="kazakhstan" stroke="none" stroke-width="1" fill="none" fill-rule="evenodd">
        <path d="M437.303371,182.506637 L434.751582,184.226944 L431.052923,187.791802 L429.351731,188.14542 L426.685255,188.422581 L424.792918,189.301849 L425.175208,190.869239 L425.538384,193.019623 L424.859818,194.701701 L423.798963,195.60964 L422.2029,196.192633 L419.565096,196.393336 L417.395598,196.746954 L414.719566,199.164941 L410.609944,199.776606 L406.156261,200.655874 L403.021479,202.032119 L396.264497,203.742869 L392.365135,204.497892 L385.818412,206.132184 L380.552361,206.399787 L379.759109,205.252916 L375.706831,207.78559 L371.167132,207.632673 L370.33565,208.636186 L369.227008,209.620583 L368.003679,210.060217 L366.46496,211.254875 L365.576135,213.777992 L364.907127,216.358452 L363.530881,217.180376 L361.705445,216.215093 L360.357871,215.278481 L358.045014,216.22465 L354.910233,216.778971 L352.463574,216.43491 L351.211573,215.699001 L346.069768,216.941445 L343.37462,218.432377 L342.8872,219.206515 L342.218192,219.636592 L339.140754,220.659219 L336.665424,220.382058 L336.283133,220.439402 L333.932047,221.156196 L330.625235,222.455984 L328.245478,222.88606 L326.257568,222.857388 L324.986452,223.918244 L323.944711,225.055558 L315.276276,226.259773 L314.406565,227.100812 L312.64803,228.132996 L303.635533,228.486615 L302.890067,229.251195 L302.56512,230.092234 L301.446921,230.359838 L294.947984,228.735103 L289.758392,226.928781 L287.74181,227.922736 L286.031061,229.776845 L285.419396,232.491106 L285.419396,234.794406 L285.419396,236.772759 L284.645258,238.196791 L282.915394,239.955326 L282.791149,241.130869 L285.142235,242.411542 L288.066757,243.462841 L289.806178,243.004092 L291.249325,242.277741 L292.510883,242.497558 L293.399708,243.357711 L293.70554,244.389895 L293.543067,245.097132 L292.998303,245.661011 L291.077294,246.607179 L289.318758,246.282233 L287.694024,246.932126 L286.852985,248.241471 L286.394236,250.516099 L287.120588,252.140833 L289.318758,252.542238 L291.784531,253.708224 L294.517907,254.272102 L296.161756,254.071399 L298.254796,255.84905 L303.138556,258.008991 L304.438343,259.662396 L304.476572,261.354031 L303.587747,262.625147 L302.335746,263.361056 L300.663226,262.969208 L297.327742,262.529574 L293.686426,262.223742 L291.077294,261.669421 L287.263947,261.889238 L284.129166,262.434002 L283.326356,263.705117 L282.112584,266.075318 L281.099514,267.39422 L279.312307,269.821764 L278.757986,272.048605 L279.68504,275.470104 L282.791149,281.108888 L283.096982,282.962996 L281.978782,284.769318 L279.828399,286.279365 L276.722289,288.926726 L273.358134,289.060528 L271.914988,289.719979 L268.149427,292.950333 L264.833058,294.479494 L264.144935,295.846183 L264.880844,297.203314 L269.057367,298.980964 L271.169521,300.940202 L271.771629,303.128815 L272.679568,304.791778 L275.938594,305.871748 L282.676462,308.385308 L283.06831,308.652911 L283.479272,309.799782 L290.331828,311.386287 L291.277996,312.246441 L294.097388,315.065832 L294.699495,318.047697 L293.265906,320.943547 L292.329295,325.511917 L290.857477,329.535524 L287.655795,332.211557 L282.074355,334.667772 L276.081953,335.65217 L273.539722,335.48014 L271.895873,335.174307 L269.200726,334.400169 L267.212816,332.37403 L265.750555,330.367005 L264.699256,329.870028 L263.657515,330.194975 L262.66356,331.446976 L261.354215,334.830246 L259.863283,338.16573 L258.659068,339.35083 L254.176713,340.91822 L253.689293,340.354342 L254.205385,338.146615 L253.622392,337.477607 L252.790911,336.990187 L247.257257,336.13959 L245.164217,335.508811 L243.606384,335.260323 L241.618474,334.696444 L240.242228,333.377542 L237.308149,329.30615 L235.014407,326.114025 L231.30619,323.227732 L227.951592,322.663854 L227.683989,322.960129 L225.141758,323.065259 L221.089479,322.358022 L220.888777,322.43448 L219.627219,323.753382 L218.690607,325.808192 L217.438606,327.547614 L215.555826,328.455553 L213.290755,328.67537 L210.738967,326.878606 L208.120278,324.087886 L204.842137,323.179946 L201.640455,323.791611 L200.47447,324.221687 L197.129429,325.808192 L196.087687,325.072283 L194.606312,324.603978 L191.347286,327.203552 L187.782428,330.042059 L187.00829,332.16377 L185.92832,334.113451 L183.567677,335.958003 L180.977659,337.554065 L178.789047,338.146615 L175.950541,337.554065 L172.404797,335.604384 L169.136214,333.148168 L165.600028,329.267921 L162.704178,327.041079 L159.94213,325.272986 L158.260053,324.852466 L156.912479,325.511917 L156.38683,326.888163 L156.759563,327.97769 L157.562373,328.942974 L158.183594,332.020411 L158.422526,335.7573 L158.145365,337.879012 L157.371227,339.14057 L156.568418,339.599319 L155.822951,339.436845 L154.924569,338.117943 L154.360691,335.327223 L153.930614,332.039526 L151.50307,327.891675 L149.400473,325.349444 L148.39696,323.944527 L146.466394,321.622113 L144.803431,320.188524 L141.257687,318.544675 L139.518266,317.350017 L136.507729,312.714746 L134.816094,311.309829 L132.656153,310.115172 L130.859388,309.761553 L130.467541,310.029156 L126.759324,310.707722 L124.092848,310.602592 L122.477671,309.732881 L120.805151,309.618194 L120.652235,309.618194 L118.836355,310.201187 L118.492294,310.162958 L117.574797,310.134286 L116.102979,309.169003 L114.66939,306.588543 L112.853511,303.836052 L110.664898,302.956784 L106.488376,304.113212 L101.948677,307.850101 L98.6705369,310.057828 L96.0136186,310.124729 L94.4940143,310.459233 L93.4713875,310.334989 L92.6207913,309.637309 L92.4200889,308.299292 L91.9995694,306.578985 L89.9160868,304.906465 L87.0584661,303.826495 L84.4015478,302.641394 L82.6525692,302.326005 L81.9166602,304.027197 L79.6993759,306.751016 L77.2049311,309.379263 L74.003249,313.651358 L73.1335383,315.170962 L71.9102091,316.164917 L69.1194892,317.264002 L65.7266619,319.05121 L63.5667211,321.106021 L60.4988407,322.023518 L57.1920288,322.60651 L55.7488825,324.374603 L54.8696146,327.241781 L53.7609725,329.822242 L48.561823,333.721604 L45.7137596,336.24472 L43.6398342,337.573179 L42.1966879,337.401149 L40.6388546,336.999744 L40.0367472,337.219561 L40.839557,339.150127 L41.5181225,345.199873 L42.4834057,349.041891 L43.1715284,351.240061 L43.8214221,352.969925 L44.3375142,355.617286 L43.6780632,357.165562 L42.6649937,358.207304 L39.5397697,359.832038 L36.2903013,361.236955 L34.3406203,360.338573 L32.1711223,358.102174 L31.3205261,356.936188 L28.9503257,353.170628 L24.8120321,347.388485 L21.9830832,344.454407 L19.8900432,343.364879 L18.007263,343.689826 L16.5450023,345.066071 L15.5032609,346.298958 L14.5188632,347.656089 L13.8976413,349.376395 L13.9645421,351.746596 L13.8976413,354.231484 L12.9897016,355.990019 L10.6577302,357.882357 L7.95302559,360.510603 L5.93644374,365.23189 L4.63665639,371.119162 L4.21613696,375.190555 L5.21009199,377.092449 L7.18844479,378.631168 L8.46911763,380.208116 L8.72716364,381.699049 L8.39265955,383.247325 L7.36047547,385.04409 L5.21009199,387.0989 L2.26645593,391.992218 L0.421904762,398.873445 L1.44453157,403.642517 L5.21964925,406.261207 L8.19195709,407.408078 L9.37705732,408.937239 L10.4570277,412.033792 L10.2945543,415.168573 L9.94093566,417.290285 L10.6768447,419.36421 L12.0817619,421.829983 L13.8594122,423.330473 L15.7135207,422.518106 L17.5867436,421.495479 L19.9091578,421.896884 L26.4749953,422.74748 L29.9156089,423.196671 L31.0338083,424.257527 L33.1746346,427.717255 L35.8793391,431.587945 L38.6031582,435.515979 L39.5588842,437.207614 L41.7857258,441.871557 L44.0985827,446.04808 L46.6025848,451.218557 L46.4305541,452.613917 L45.1212095,453.19691 L43.0186123,453.063108 L41.3843208,452.298528 L40.4763811,451.677306 L39.6448995,451.467046 L38.7369598,451.715535 L37.9437073,452.374986 L37.6378749,453.388055 L37.7621193,454.783415 L38.4024557,456.044974 L39.2721664,456.847783 L39.7500294,457.163173 L42.970826,458.826136 L46.5930275,460.699359 L51.0275961,463.34672 L51.9642076,463.671667 L51.4576728,462.295422 L53.0250634,460.852275 L54.5255532,461.607299 L54.1623774,459.466473 L54.2388354,458.501189 L55.9973713,457.994655 L58.8836638,457.76528 L59.8202752,457.124944 L62.3529491,457.019814 L64.8091649,456.331691 L67.055121,455.223049 L69.0525883,453.454956 L73.0761948,450.645122 L75.3030363,448.217578 L76.3352204,448.122005 L77.4343053,448.399166 L78.5047184,448.14112 L80.4161704,446.525943 L81.4483545,446.143652 L85.1374568,443.591864 L90.2028046,441.594397 L92.4200889,441.957572 L98.7947813,443.897696 L99.4733467,444.241758 L101.337012,446.659744 L105.274603,447.768386 L106.574391,447.567684 L108.027094,449.364449 L109.078393,449.670281 L110.062791,449.364449 L113.044656,447.777944 L113.923924,446.994248 L114.612046,445.799591 L115.85449,445.025453 L119.667837,445.990736 L124.350894,446.067194 L126.682866,447.82573 L127.361431,448.886586 L128.709005,452.145612 L129.349341,454.229094 L128.603875,455.968516 L127.543019,457.69838 L127.256301,459.762748 L128.145127,461.492612 L128.651661,467.800403 L126.816667,474.127309 L123.796573,479.412474 L121.569732,485.213731 L122.812175,487.335443 L127.686378,489.829887 L129.941891,491.932485 L127.552576,492.620607 L124.255322,492.276546 L121.521945,491.617095 L116.781544,490.078376 L114.736291,489.906346 L107.3103,490.365094 L101.107638,490.059262 L97.3038487,491.626652 L94.8667474,491.21569 L93.2611278,493.394745 L92.4869897,494.780548 L91.617279,497.781528 L89.7249416,500.037041 L87.4981,501.700004 L86.8959926,503.315181 L87.1158096,505.197961 L87.8421614,506.373504 L90.9864999,509.192896 L92.792822,511.677784 L93.8919069,512.203433 L95.1725797,512.146089 L96.4054663,512.815098 L97.3803068,514.086213 L94.1021666,513.809053 L92.8023793,514.047984 L90.1836901,514.908138 L88.8839027,514.736107 L87.6701307,514.105328 L83.9619138,511.400623 L79.8714066,511.276379 L75.1023339,511.534425 L72.9041641,512.70041 L72.2542704,514.220015 L72.0248962,515.997665 L72.0153389,517.507712 L72.4740874,518.912629 L73.563615,519.734554 L76.3256632,520.566035 L80.511743,521.378403 L82.4423095,522.391472 L83.3884782,523.347198 L85.5197472,529.741005 L87.975963,535.398903 L89.447781,538.141836 L91.3974621,540.091517 L92.0855848,541.276618 L92.6303486,542.643306 L92.8692801,544.306269 L92.8597228,546.055248 L92.4487607,549.409846 L92.5156615,550.939007 L93.5382883,551.120595 L96.8068712,551.044137 L98.8043385,551.359527 L100.467302,552.821788 L102.130265,555.488263 L102.646357,556.816722 L103.286693,558.01138 L104.357107,559.09135 L105.589993,559.597885 L106.71775,559.330282 L107.845506,558.823747 L109.967218,559.120022 L111.716197,560.955016 L112.719709,560.515382 L114.889207,560.305122 L116.055193,560.419809 L117.154278,560.8021 L118.071775,562.015872 L118.903256,567.46351 L118.501851,570.837223 L117.622583,573.417683 L116.513941,575.893013 L115.433971,579.515215 L115.36707,580.89146 L115.548658,585.163555 L116.055193,587.935161 L120.050127,583.624836 L123.462069,580.556956 L126.243232,578.712405 L127.093828,578.263214 L130.916732,576.734052 L135.848278,575.348249 L139.480037,574.325623 L144.21088,573.446355 L145.759157,573.283881 L148.033784,573.312553 L149.878336,574.12492 L150.996535,574.774814 L154.943683,577.412617 L158.976847,580.107765 L162.427018,583.080073 L163.411416,584.293845 L163.956179,585.736991 L164.367142,587.161023 L167.310778,591.652935 L168.486321,593.707746 L170.206627,596.374221 L171.573316,597.674009 L172.940004,599.279628 L173.838386,600.588973 L174.87057,601.219752 L176.017442,601.468241 L178.636131,601.057279 L181.799584,600.225797 L183.682364,599.872178 L184.504288,599.919965 L184.504288,593.927563 L184.504288,587.916046 L184.494731,581.875858 L184.494731,575.816555 L184.494731,569.738138 L184.494731,563.631049 L184.485174,557.504845 L184.485174,551.359527 L184.485174,545.185537 L184.485174,538.992433 L184.485174,532.770656 L184.485174,526.520208 L184.475617,520.250646 L184.475617,513.961969 L184.475617,507.64462 L184.466059,501.298599 L186.922275,500.505347 L190.028385,499.511392 L192.991135,498.555666 L196.517764,497.418352 L200.512699,496.137679 L203.905526,495.038594 L207.967361,493.72925 L211.063914,492.71618 L213.978878,491.779568 L217.696652,490.661369 L223.488352,488.941062 L226.709148,487.966222 L229.968174,486.981824 L233.074283,486.045213 L235.157766,485.701151 L235.845889,486.112113 L236.256851,484.879227 L236.591355,484.44915 L237.126562,481.209239 L237.633096,479.307344 L238.416792,477.501022 L239.420304,476.172563 L240.634076,475.302852 L241.647145,474.958791 L242.440398,475.121264 L242.927818,474.834547 L243.06162,474.117752 L243.539483,473.926607 L245.384034,474.461813 L246.664707,474.414027 L247.859364,473.98395 L248.987121,473.171583 L249.856832,473.152469 L250.478054,473.936164 L250.267794,475.063921 L249.23561,476.535739 L248.633502,478.017114 L248.471029,479.555833 L248.977564,480.817391 L250.162664,481.811346 L250.803001,481.76356 L250.917688,480.664475 L251.261749,480.167498 L251.825627,480.253513 L252.160131,480.702704 L252.217475,481.524629 L252.743124,481.343041 L253.708408,480.177055 L254.673691,479.594062 L255.658089,479.594062 L256.183738,478.982397 L256.241081,477.759068 L256.776288,475.627799 L257.760686,472.588591 L257.215922,469.348679 L255.132439,465.898509 L254.167156,463.967942 L254.329629,463.528308 L254.683248,463.461407 L255.237569,463.786354 L257.636441,463.843698 L258.620839,464.101744 L259.203832,464.684737 L259.633909,466.022753 L259.920626,468.096678 L259.834611,469.654512 L259.375863,470.715368 L259.719924,471.202788 L260.857238,471.116773 L264.116264,469.750084 L265.588082,469.578054 L266.782739,470.151489 L268.225885,470.399978 L269.907963,470.313963 L276.339999,471.212345 L277.009007,471.002085 L277.859603,470.352192 L279.503452,468.450297 L279.742384,467.179181 L279.713712,466.338143 L278.280123,463.212919 L277.859603,461.836673 L277.525099,461.6742 L277.219267,461.874902 L276.980335,462.419666 L275.489403,463.337163 L275.01154,463.987057 L274.31386,464.092186 L272.383293,462.887972 L271.322438,461.741101 L269.506558,461.492612 L266.95477,462.180734 L265.091104,461.836673 L263.944233,460.489099 L263.504599,458.98861 L263.724416,457.325646 L264.985974,455.662683 L267.270159,454.009277 L268.856665,453.359384 L269.793276,453.713002 L270.605643,455.203935 L271.341552,457.822624 L271.991446,458.233586 L272.574439,456.408149 L273.396363,455.872943 L274.438104,456.608852 L275.422502,456.828669 L276.339999,456.513279 L277.811817,455.471538 L277.859603,454.037949 L276.081953,452.757276 L275.049769,451.782436 L274.753494,451.122985 L275.785678,451.027412 L278.165436,451.495718 L279.207177,452.900635 L278.930016,455.270836 L279.254963,457.086715 L280.17246,458.357831 L281.98834,459.342228 L284.67393,460.030351 L286.575824,460.288397 L287.674909,460.106809 L288.391704,460.575115 L288.726208,461.683757 L288.458605,463.356277 L287.588894,465.583119 L286.690512,466.701318 L285.763457,466.720433 L280.793682,469.339122 L279.952643,469.492038 L278.863116,470.333077 L277.878718,471.776223 L276.51203,472.999553 L274.753494,474.003065 L273.425035,475.274181 L272.53621,476.812899 L271.7334,477.491465 L269.755047,477.061388 L262.28127,475.465326 L261.249086,475.446211 L260.541848,475.618242 L260.18823,475.962303 L260.255131,476.430609 L260.427161,476.889358 L260.436719,477.214304 L260.073543,477.854641 L259.97797,478.953726 L259.729481,479.278672 L259.471435,479.469818 L259.270733,479.842551 L259.00313,481.132781 L258.58261,481.754003 L258.343679,482.690614 L258.324564,483.923501 L258.534824,484.707196 L259.00313,485.032143 L262.778247,484.831441 L263.552385,485.070372 L264.259622,486.656877 L264.890402,489.562284 L265.07199,492.534592 L264.794829,495.554686 L264.632356,505.379549 L267.260602,507.128528 L269.965307,508.944407 L272.679568,510.760287 L275.39383,512.566609 L278.108092,514.372931 L280.822354,516.179253 L283.355028,517.851774 L284.492342,519.103775 L285.104006,521.846708 L286.356007,524.016206 L288.535063,526.367292 L290.771462,528.775722 L293.523952,531.948732 L295.454519,534.156459 L297.4042,536.392858 L300.644111,540.08196 L302.651136,542.375703 L304.266313,542.452161 L307.525338,541.907397 L311.864334,541.171488 L315.314505,540.598052 L319.471913,539.900372 L323.438176,539.240921 L326.5634,538.705715 L331.2369,539.097562 L335.853057,539.508525 L339.159869,539.785685 L342.39978,540.062846 L346.260913,540.387793 L348.401739,540.56938 L350.848397,540.789197 L351.890139,540.225319 L354.011851,539.097562 L356.018875,538.036707 L358.092801,536.928064 L359.937352,536.354629 L361.858361,538.132279 L363.454423,540.177533 L365.155616,542.327916 L367.114854,544.392284 L368.997634,545.615614 L371.549423,547.26902 L373.011683,550.097969 L374.961364,553.873086 L376.251594,556.357974 L377.570496,558.890648 L379.501063,557.896693 L381.546316,556.816722 L383.409982,555.851439 L383.190165,558.995778 L382.979905,561.843841 L382.68363,566.144608 L382.416027,569.66168 L381.747019,573.84776 L381.699233,577.030327 L381.661004,579.821047 L381.632332,582.028774 L385.235419,582.133904 L387.901894,582.200805 L391.237378,582.296377 L391.571882,585.067983 L392.021073,588.967345 L392.699639,592.484416 L393.263517,595.418495 L394.12367,599.231842 L394.582419,601.257981 L395.385229,603.647296 L396.178481,604.211174 L397.44004,604.603022 L401.845936,604.316304 L405.515924,604.08693 L408.39266,603.905342 L411.470097,603.695082 L415.531933,603.427479 L416.917735,604.039144 L418.093278,603.618624 L419.479081,603.188548 L420.568609,604.927969 L421.132487,605.807237 L421.906625,606.705619 L422.967481,607.556215 L422.51829,609.333866 L421.868396,611.904769 L421.686808,613.233228 L422.957924,614.666817 L423.894535,615.498298 L426.484553,617.189933 L428.902539,618.136102 L430.479487,618.42282 L431.999092,618.059644 L432.543855,617.103918 L432.410054,615.775459 L431.674145,614.380099 L431.741046,612.717136 L432.218909,611.503364 L433.767185,609.295637 L435.229445,607.212154 L437.465844,605.080885 L440.13232,602.978288 L441.240962,601.439569 L441.661481,598.763536 L443.41046,597.234375 L445.283683,596.316878 L447.634769,595.523625 L448.275105,594.185609 L451.495902,591.901424 L453.426468,590.773667 L455.882684,590.114216 L459.265954,588.623283 L461.922872,586.883862 L464.474661,583.57705 L466.5008,581.426667 L468.221107,580.08865 L469.645138,580.040864 L470.648651,581.120834 L471.518361,581.216407 L472.101354,580.709872 L473.05708,579.333627 L474.098822,577.708893 L475.064105,577.039884 L476.946885,576.695823 L478.63852,575.596738 L477.596779,574.411638 L477.596779,573.178751 L478.753207,571.076154 L479.728048,570.024856 L480.13901,567.989159 L481.53437,566.632028 L482.977516,564.481645 L484.736052,562.723109 L487.98552,561.404207 L489.8014,561.834284 L491.493035,561.528451 L494.121281,560.438924 L494.637373,560.38158 L495.746015,560.362466 L502.522113,561.996757 L504.758511,562.082773 L510.015004,564.204484 L512.432991,564.67279 L514.143741,565.26534 L514.917879,566.182837 L516.141208,567.310594 L522.735717,568.228091 L524.551597,568.830198 L525.20149,569.814596 L527.074713,571.066597 L528.680333,571.343757 L527.284973,566.45044 L527.839294,563.535476 L529.922777,555.526492 L531.012304,554.322277 L533.105344,553.251864 L536.402599,552.057207 L537.645043,550.375129 L540.321076,550.54716 L541.506176,550.403801 L542.308986,550.097969 L542.74862,549.161357 L545.787828,550.786091 L550.872291,554.102461 L554.695195,556.1955 L559.234893,558.164296 L565.485341,559.970618 L570.770506,560.563168 L571.688003,560.142649 L573.809714,557.409272 L574.80367,557.285028 L576.609992,557.514402 L582.220103,557.648204 L587.944902,557.772448 L590.640049,557.504845 L596.479535,556.367531 L597.349246,556.310188 L598.715934,556.396203 L602.223448,557.944479 L604.823023,558.164296 L606.619788,558.154739 L607.651972,558.278983 L609.811913,558.22164 L613.338542,558.412785 L617.696652,559.416297 L622.934031,559.225152 L624.625666,559.043564 L627.531073,559.225152 L629.843929,560.180878 L632.787566,561.193947 L634.632117,561.614467 L635.865003,561.843841 L638.063173,561.910742 L639.372518,561.595352 L640.117984,562.044544 L640.873007,564.529431 L642.698444,566.154165 L644.112919,567.683327 L645.298019,569.374962 L646.511791,570.063085 L648.64306,570.082199 L652.666666,570.569619 L654.98908,571.248185 L657.932716,574.163149 L660.646978,577.145014 L661.105727,576.676708 L661.621819,575.950357 L661.545361,574.92773 L660.580077,571.601803 L660.054428,568.447908 L659.719924,565.599844 L659.777268,564.538988 L660.513177,562.694437 L661.459345,561.021917 L664.86173,559.464083 L667.1268,558.98622 L667.222373,557.963594 L665.387379,557.332814 L664.068477,556.30063 L663.829546,555.717637 L663.896447,555.058187 L664.202279,554.456079 L666.486464,553.309208 L668.655962,552.162337 L671.293766,552.860017 L671.819415,552.410826 L671.972331,551.273512 L671.408453,550.12664 L670.873246,548.24386 L669.659474,547.278577 L669.611688,546.131706 L670.357154,544.134238 L669.32497,540.435579 L668.197214,537.166996 L666.276204,531.547327 L665.014646,529.922593 L664.316966,527.332575 L663.514156,525.965887 L663.581057,523.939748 L663.714859,522.525274 L663.504599,519.705882 L663.141423,516.628444 L663.504599,513.522335 L664.221393,511.457967 L664.030248,510.674271 L664.402981,510.081721 L665.482952,509.881019 L665.999044,509.03998 L665.482952,508.170269 L663.619286,507.510818 L661.545361,506.45952 L659.050916,506.574207 L656.480013,506.765352 L655.208897,505.991214 L654.081141,505.006816 L654.023797,504.36648 L655.562516,502.703517 L657.693785,500.973653 L661.019711,500.209072 L664.689699,499.081315 L666.543808,498.249833 L669.000023,497.647726 L671.857644,497.399237 L673.291233,497.571268 L676.980335,496.462626 L682.762478,494.3218 L688.018971,492.525035 L689.787064,491.454622 L691.096408,492.525035 L691.698516,494.876121 L693.227677,496.09945 L694.747282,496.692 L695.62655,496.672886 L698.245239,495.745831 L701.074188,495.076823 L702.18283,495.439999 L703.625976,496.653771 L705.241153,497.724184 L706.072635,497.676398 L706.818101,496.854474 L707.563567,495.162839 L708.031873,493.012455 L708.127446,490.747384 L707.850285,489.361582 L707.276849,488.84549 L704.705947,488.033123 L702.249731,486.695106 L701.97257,485.471777 L702.020356,484.592509 L702.67025,482.442126 L704.27587,478.514092 L705.891047,473.047339 L706.741643,468.727458 L709.43679,462.26675 L711.558502,455.50021 L714.989558,445.73269 L715.562994,443.792566 L715.878383,440.686457 L716.059971,439.405784 L717.254629,438.736776 L719.280768,439.38667 L724.1932,441.632626 L727.949203,443.524963 L729.516593,444.146185 L731.848565,444.815193 L735.451652,445.598888 L737.535134,445.379072 L739.360571,444.901209 L741.788115,444.872537 L745.591905,445.45553 L746.767447,445.484201 L748.220151,445.551102 L749.27145,446.497271 L749.787542,448.647654 L750.580794,449.612938 L751.995269,449.259319 L755.015363,447.366982 L756.955487,445.866492 L759.373473,443.706551 L761.762788,443.419833 L764.305019,442.932413 L765.184287,441.862 L766.111342,439.338883 L767.688289,437.427431 L767.936778,435.009444 L767.392014,433.298695 L766.302487,430.517532 L766.350273,428.634752 L765.824624,423.167999 L765.117387,418.236453 L765.834181,414.241519 L767.086182,409.778278 L767.58316,408.41159 L768.376412,406.605268 L769.504169,404.445327 L771.081117,403.766762 L775.5348,403.308013 L779.653979,402.400074 L781.747019,401.463462 L783.926074,400.890027 L785.225861,400.201904 L787.471818,397.038451 L788.542231,395.203457 L789.325926,390.348369 L788.742933,388.00684 L789.230353,385.932915 L790.310324,384.709585 L791.839485,383.486256 L792.852555,383.275996 L795.03161,382.903263 L798.606025,383.027508 L800.421905,383.629615 L799.91537,381.775507 L798.672926,379.720696 L796.990848,379.013459 L795.461687,378.573825 L794.104556,377.589427 L793.158387,376.538128 L790.386782,371.549239 L788.465773,369.41797 L786.735909,369.293725 L786.496977,367.869693 L787.500489,366.445662 L788.790719,365.270119 L788.75249,363.664499 L787.701192,362.794788 L786.420519,363.043277 L784.690655,364.906943 L782.635844,366.999983 L780.179628,368.538702 L779.185673,369.790703 L777.981458,371.205177 L776.251594,371.014032 L775.018708,371.080933 L773.92918,371.205177 L773.12637,369.666458 L772.084629,369.475313 L764.572623,367.993938 L762.087735,367.439617 L760.510787,368.185083 L759.354359,367.688106 L758.914725,366.20673 L757.471579,363.607156 L756.286478,361.456772 L754.795546,359.249045 L754.298568,357.509624 L754.776431,355.703302 L754.575729,354.155025 L753.285499,353.342658 L751.612978,353.237528 L747.063723,349.844701 L744.942011,349.338166 L743.011444,348.716945 L741.482283,348.716945 L740.20161,347.206897 L738.949609,342.619413 L738.586433,340.067624 L737.085943,337.46805 L735.174491,335.241208 L734.046735,332.211557 L732.383771,330.863983 L729.593051,328.723157 L726.907461,327.21311 L722.501565,325.378116 L720.857716,325.378116 L718.630874,325.550146 L717.311972,326.448529 L715.859269,328.417324 L713.880916,328.541569 L710.784364,328.532012 L709.952882,329.277478 L709.446347,330.615494 L707.850285,332.307129 L705.537428,333.673817 L702.240173,333.224626 L700.003775,333.931863 L697.757819,334.189909 L694.537022,332.469603 L690.953049,332.536503 L688.640193,333.320199 L685.333381,333.291527 L684.654815,332.316686 L685.065777,330.691952 L684.788617,329.220134 L684.243853,328.01592 L683.813776,326.563216 L682.456645,326.257384 L678.624184,326.878606 L677.592,326.190483 L677.706687,324.747337 L678.39481,322.960129 L678.958688,320.637715 L678.691085,319.251912 L676.712732,319.423943 L675.518075,319.290141 L674.887296,317.636735 L673.778653,316.422963 L672.507538,316.36562 L670.978376,316.05023 L669.315413,316.556765 L668.426588,318.210171 L667.356175,318.45866 L666.180632,318.917408 L665.339593,319.490844 L664.813944,320.962662 L665.052875,322.32935 L665.425608,325.2921 L664.86173,326.878606 L663.323011,327.729202 L661.851193,327.566728 L660.857238,327.958576 L659.031801,329.621539 L658.238549,330.185418 L657.951831,331.198487 L657.827587,332.727649 L656.260196,332.211557 L653.765751,326.601445 L650.965474,320.217195 L647.773349,313.393312 L646.091271,309.77111 L639.812152,297.920108 L636.734714,292.214424 L631.41132,282.32266 L626.584904,273.262377 L621.127708,263.819805 L617.897355,258.42951 L614.475855,252.733383 L613.300313,251.156435 L611.436647,249.120739 L606.801376,245.183148 L600.187752,239.534807 L594.061548,234.479017 L589.244689,230.493639 L588.02136,228.802004 L587.457482,227.817606 L586.94139,226.728079 L586.234152,224.778398 L586.224595,223.507282 L590.802523,223.717542 L591.748691,222.465541 L593.449884,217.801598 L594.386495,213.739763 L592.857334,213.930908 L590.028385,215.603428 L588.537452,216.8172 L587.696413,217.333292 L583.175829,218.126545 L580.690942,219.92331 L575.587365,222.962518 L571.898262,224.740169 L571.191025,225.036444 L566.880701,225.581208 L566.106563,226.288445 L565.991876,227.846278 L565.695601,229.576142 L562.618163,232.108816 L559.320908,234.335658 L558.068907,234.584146 L556.061883,234.096726 L555.020141,234.373887 L552.028719,236.73453 L547.517692,240.289831 L547.097173,241.732977 L547.078058,243.472398 L546.552409,245.00156 L545.548897,245.555881 L544.096193,244.227422 L542.767734,242.631359 L539.986572,241.465374 L535.867393,241.207328 L533.353833,241.761649 L531.614412,242.631359 L528.221585,246.177103 L526.979141,246.88434 L526.300575,246.645408 L526.10943,244.944216 L525.421307,243.720887 L524.599383,241.905008 L525.000788,238.301921 L526.845339,234.85175 L529.874991,232.959412 L532.331206,230.923716 L533.048001,228.706432 L532.990657,227.158155 L532.082718,226.450918 L531.136549,226.326674 L530.582228,227.07214 L528.928822,228.591744 L526.463049,229.815074 L524.427352,230.054005 L523.509855,229.977547 L521.3308,229.212966 L517.307194,224.988657 L513.904809,224.415222 L511.563281,224.090275 L510.789142,224.520352 L510.425967,225.562093 L510.645784,226.680292 L511.114089,227.808049 L510.856043,228.706432 L509.766516,229.37544 L508.122667,230.512754 L507.281628,229.75773 L506.870666,226.775865 L506.947124,224.463008 L505.819367,222.513327 L504.62471,219.464561 L502.990418,217.667796 L501.41347,218.250789 L500.629775,220.821692 L499.435118,221.691403 L497.131818,221.175311 L492.993524,222.628014 L486.293885,223.277908 L481.515255,221.481143 L480.722003,219.865966 L482.671684,216.377566 L482.8246,213.300129 L482.815043,210.499851 L483.340692,208.44504 L482.165149,204.517007 L479.527345,196.498466 L477.931283,190.429606 L475.57064,185.851678 L474.548013,184.341631 L469.606909,185.125326 L468.230664,186.128839 L467.341839,187.543313 L465.80312,188.518154 L463.624065,189.254063 L461.760399,188.757085 L459.676916,187.992504 L457.488304,186.396442 L454.936515,184.265173 L450.081427,182.554423 L445.245454,182.019217 L439.950732,181.426667 L437.303371,182.506637 Z M245.881012,479.307344 L245.36492,481.056323 L244.934843,481.859133 L244.600339,481.715774 L244.447423,481.056323 L244.466537,479.88078 L244.227606,479.355131 L243.711514,479.488932 L243.348338,480.549788 L243.128521,482.537698 L242.15368,484.305791 L240.423816,485.873182 L239.19093,487.536145 L238.961555,488.090466 L240.108427,488.874161 L242.822688,490.709155 L245.53695,492.544149 L248.251212,494.369586 L250.965474,496.20458 L252.427735,497.188978 L252.657109,496.58687 L252.838697,494.857006 L252.571094,492.725737 L251.854299,490.212178 L251.53891,488.023565 L251.615368,486.179014 L251.338207,485.280632 L250.7361,485.318861 L250.372924,484.783654 L250.258237,483.675012 L249.770816,482.881759 L248.948892,482.432568 L248.232098,481.534186 L247.046997,479.230886 L246.44489,478.705237 L245.881012,479.307344 Z M117.240293,487.975779 L118.110004,489.256452 L119.419348,490.001918 L119.76341,489.705643 L119.964112,488.338955 L119.314218,486.742893 L118.320263,486.465732 L117.240293,487.975779 Z M72.8563778,499.052643 L72.091797,500.534019 L72.4932019,502.302112 L73.1813246,501.929379 L73.5540578,501.19347 L73.9267909,498.851941 L72.8563778,499.052643 Z M68.2211067,499.310689 L67.5043122,499.922354 L66.9691057,502.894662 L68.928344,505.838298 L69.9796426,505.962542 L70.6773225,505.178847 L68.9761303,504.433381 L67.8197018,502.560158 L67.9439462,500.887637 L69.3488634,499.540064 L69.2055045,498.89017 L68.2211067,499.310689 Z" id="Fill-1" fill="#49AEA3"></path>
    </g>
</svg>