<?xml version="1.0" encoding="UTF-8"?>
<svg width="74px" height="100px" viewBox="0 0 74 100" version="1.1" xmlns="http://www.w3.org/2000/svg" xmlns:xlink="http://www.w3.org/1999/xlink">
    <title>Group 3</title>
    <g id="Design" stroke="none" stroke-width="1" fill="none" fill-rule="evenodd">
        <g id="Britannica---Fact-Page" transform="translate(-479.000000, -590.000000)">
            <g id="Group-3" transform="translate(479.573000, 590.000000)">
                <path d="M36.2162551,1.5 C45.7874986,1.5 54.4662036,5.39403844 60.7523352,11.6801361 C67.0384467,17.9662137 70.9325101,26.6448464 70.9325101,36.2160598 C70.9325101,60.6401425 38.8843717,96.4039487 37.5264662,97.9161923 C37.176971,98.30547 36.6964157,98.5 36.2159596,98.5 C35.7359793,98.5 35.2557736,98.3057119 34.9059681,97.9161078 C33.5481384,96.4039487 1.5,60.6401425 1.5,36.2160598 C1.5,26.6448227 5.39403412,17.9661698 11.6801498,11.680088 C17.9662546,5.39401714 26.6449415,1.5 36.2162551,1.5 Z M36.2162432,18.7161574 C31.391468,18.7161574 27.0160612,20.6781298 23.8470993,23.8470578 C20.6781618,27.0159613 18.7161574,31.3912922 18.7161574,36.2160717 C18.7161574,41.0408804 20.6781438,45.4162802 23.8470948,48.5852312 C27.0160291,51.7541654 31.391408,53.7161574 36.2162432,53.7161574 C41.0410119,53.7161574 45.4163666,51.7541918 48.5852837,48.5852747 C51.7541872,45.4163712 53.7161574,41.0410334 53.7161574,36.2162432 C53.7161574,31.3914465 51.7541805,27.0160567 48.5852661,23.8471083 C45.416349,20.6781572 41.0410011,18.7161574 36.2162432,18.7161574 Z" id="Shape" stroke="#000000" stroke-width="3" fill="#626ECC" fill-rule="nonzero"></path>
                <path d="M36.2162432,52.2161574 C27.3936602,52.2161574 20.2161574,45.0385601 20.2161574,36.2160717 C20.2161574,27.3935833 27.3938317,20.2161574 36.2162432,20.2161574 C45.0386546,20.2161574 52.2161574,27.3937548 52.2161574,36.2162432 C52.2161574,45.0387316 45.0386546,52.2161574 36.2162432,52.2161574 Z" id="Path" fill-opacity="0.35" fill="#FFFFFF"></path>
            </g>
        </g>
    </g>
</svg>